<svg width="499" height="382" viewBox="0 0 499 382" fill="none" xmlns="http://www.w3.org/2000/svg">
<path d="M270 362.461C265.5 364.461 252 363.961 249 365.961V380.461L354.5 381.961C351.5 375.461 344.7 362.461 341.5 362.461C337.5 362.461 332.561 363.742 328 361.461C323 358.961 316.079 340.461 313 327.461C308.5 308.461 305.835 273.786 308.5 256.461C311.5 236.961 314.5 203.461 314.5 189.961C314.5 174.961 311.5 157.961 313 143.961C314.651 128.55 316.5 112.461 325 89.4613C318.5 97.4613 306 127.461 305 149.961C304 140.961 295 119.461 283.5 110.961C289 117.961 298.415 136.553 300.5 158.961C302.5 180.461 300.5 198.961 298.5 214.461C296.64 228.876 288.5 254.461 285 276.961C281.5 299.461 282.083 343.961 280.5 353.461C279.5 359.461 274.5 360.461 270 362.461Z" fill="#7DC245"/>
<path d="M328.5 239.961C323 241.795 315.5 242.461 312 243.461L314.5 236.961C319 237.961 327 236.461 334.5 233.961C343.5 230.961 353.5 225.461 368 216.961C357.5 226.461 338.7 236.561 328.5 239.961Z" fill="#7DC245"/>
<path d="M316.5 241.461C308.5 259.961 307.5 275.961 308.5 297.961L289.5 296.961C290 287.961 293 264.961 296.5 254.461C300 243.961 309.046 227.356 316.5 216.461C323 206.961 329.683 193.069 336 180.961C342 169.461 346.428 159.142 349 150.461C353 136.961 354.5 117.961 352.5 100.961C358.5 120.461 358.5 141.461 355.5 153.461C352.5 165.461 342.5 189.461 338.5 197.961C334.5 206.461 324.5 222.961 316.5 241.461Z" fill="#7DC245"/>
<path d="M377 159.461C359 185.461 315.5 192.961 285.5 175.961C267 186.961 240.5 178.461 235.5 157.961C173 175.961 155 86.9613 216.5 79.9613C218.5 62.4613 235.5 51.4613 255.5 56.4613C254 41.9613 267.5 34.4613 278 37.9613C278 -9.03872 345 -11.0387 355.5 24.4613C377 24.4613 385 40.9613 382.5 56.4613C393.5 57.9613 401.5 64.4613 405.5 73.4613C408 71.9613 410 72.9613 410.5 74.9613C424 73.9613 437 84.9613 433.5 103.461C458 136.461 413 183.461 377 159.461Z" fill="#7DC245"/>
<path d="M255.284 237.996C248.277 248.111 231.342 251.029 219.663 244.415C212.461 248.695 202.145 245.388 200.198 237.413C175.867 244.415 168.86 209.792 192.802 207.069C193.58 200.261 200.198 195.981 207.984 197.926C207.4 192.285 212.656 189.368 216.743 190.729C216.743 172.445 242.826 171.667 246.914 185.477C255.284 185.477 258.398 191.896 257.425 197.926C261.707 198.51 264.822 201.039 266.379 204.54C267.352 203.956 268.131 204.345 268.326 205.123C273.581 204.734 278.642 209.014 277.279 216.211C286.817 229.049 269.299 247.333 255.284 237.996Z" fill="#7DC245"/>
<path d="M386.523 226.318C381.851 233.061 370.561 235.006 362.775 230.597C357.974 233.45 351.096 231.246 349.799 225.929C333.578 230.597 328.906 207.515 344.868 205.699C345.387 201.161 349.799 198.308 354.989 199.605C354.6 195.844 358.104 193.899 360.829 194.807C360.829 182.617 378.218 182.098 380.943 191.305C386.523 191.305 388.599 195.585 387.95 199.605C390.805 199.994 392.881 201.68 393.919 204.014C394.568 203.625 395.087 203.884 395.217 204.403C398.721 204.143 402.095 206.996 401.186 211.794C407.545 220.353 395.866 232.542 386.523 226.318Z" fill="#7DC245"/>
<path d="M276.5 277.961C283.31 280.941 291.5 289.461 296.5 298.461L288.5 301.461C285 293.961 280.519 287.664 275.5 284.961C269 281.461 260 276.461 257 274.461C254 272.461 249 268.461 247.5 264.461C246 260.461 245.5 254.961 245 246.461C244.5 237.961 242 229.961 233.5 221.461C241 226.461 246 230.461 247.5 241.461C249 252.461 251.5 261.461 253.5 264.461C256.5 268.961 268.5 274.461 276.5 277.961Z" fill="#7DC245"/>
<path d="M223.5 241.961C234 249.461 239 260.461 256 273.461L258 268.961C253 265.961 246 260.961 240.5 254.961C236.375 250.461 232.5 246.461 223.5 241.961Z" fill="#7DC245"/>
<path d="M52.2577 370.885C49.7017 372.021 42.0334 371.737 40.3293 372.873V381.109L100.255 381.961C98.5513 378.269 94.6888 370.885 92.8711 370.885C90.599 370.885 87.7934 371.612 85.2029 370.317C82.3628 368.897 78.4315 358.388 76.6826 351.004C74.1265 340.212 72.6125 320.516 74.1265 310.675C75.8305 299.599 77.5346 280.57 77.5346 272.902C77.5346 264.381 75.8305 254.725 76.6826 246.773C77.6205 238.019 78.6706 228.88 83.4988 215.816C79.8067 220.36 72.7064 237.4 72.1384 250.181C71.5704 245.069 66.4582 232.856 59.926 228.028C63.0501 232.004 68.3983 242.564 69.5823 255.293C70.7184 267.505 69.5823 278.014 68.4463 286.818C67.3898 295.006 62.7661 309.539 60.778 322.319C58.79 335.1 59.1213 360.377 58.2219 365.773C57.6539 369.181 54.8138 369.749 52.2577 370.885Z" fill="#7DC245"/>
<path d="M85.4869 301.303C82.3628 302.344 78.1026 302.723 76.1146 303.291L77.5346 299.599C80.0907 300.167 84.6348 299.314 88.895 297.894C94.0072 296.19 99.6874 293.066 107.924 288.238C101.959 293.634 91.2807 299.371 85.4869 301.303Z" fill="#7DC245"/>
<path d="M78.6707 302.154C74.1265 312.663 73.5585 321.751 74.1265 334.248L63.3341 333.68C63.6181 328.567 65.3222 315.503 67.3102 309.539C69.2983 303.575 74.4366 294.142 78.6707 287.954C82.3627 282.558 86.1588 274.667 89.747 267.789C93.1551 261.257 95.6703 255.395 97.1312 250.465C99.4033 242.797 100.255 232.004 99.1193 222.348C102.527 233.424 102.527 245.353 100.823 252.169C99.1193 258.985 93.4391 272.618 91.167 277.446C88.895 282.274 83.2148 291.646 78.6707 302.154Z" fill="#7DC245"/>
<path d="M113.036 255.577C102.811 270.346 78.1027 274.606 61.0621 264.949C50.5538 271.198 35.5013 266.369 32.6612 254.725C-2.84006 264.949 -13.0644 214.396 21.8688 210.42C23.0048 200.479 32.6612 194.231 44.0216 197.071C43.1695 188.835 50.8377 184.575 56.802 186.563C56.802 159.866 94.8592 158.73 100.823 178.894C113.036 178.894 117.58 188.267 116.16 197.071C122.408 197.923 126.952 201.615 129.224 206.727C130.644 205.875 131.78 206.443 132.064 207.579C139.733 207.011 147.117 213.26 145.129 223.768C159.045 242.513 133.485 269.21 113.036 255.577Z" fill="#7DC245"/>
<path d="M43.8988 300.186C39.9185 305.932 30.2993 307.589 23.6655 303.833C19.5746 306.263 13.7147 304.385 12.609 299.855C-1.21158 303.833 -5.19192 284.166 8.40756 282.619C8.8498 278.752 12.609 276.321 17.0316 277.426C16.6999 274.222 19.6851 272.564 22.007 273.338C22.007 262.952 36.8227 262.51 39.1445 270.355C43.8988 270.355 45.6678 274.001 45.115 277.426C47.5474 277.757 49.3165 279.194 50.201 281.183C50.7538 280.851 51.1961 281.072 51.3066 281.514C54.2919 281.293 57.1666 283.724 56.3926 287.812C61.8103 295.104 51.8595 305.49 43.8988 300.186Z" fill="#7DC245"/>
<path d="M118.445 293.553C115.791 297.383 109.379 298.488 104.956 295.984C102.229 297.604 98.3221 296.352 97.585 293.332C88.3713 295.984 85.7177 282.872 94.7841 281.841C95.0789 279.263 97.585 277.643 100.533 278.379C100.312 276.243 102.302 275.138 103.85 275.654C103.85 268.73 113.727 268.435 115.275 273.665C118.445 273.665 119.624 276.096 119.256 278.379C120.877 278.6 122.057 279.558 122.646 280.884C123.015 280.663 123.31 280.81 123.383 281.105C125.374 280.957 127.29 282.578 126.774 285.303C130.386 290.165 123.752 297.089 118.445 293.553Z" fill="#7DC245"/>
<path d="M55.9499 322.887C59.818 324.58 64.4702 329.42 67.3103 334.532L62.7661 336.236C60.7781 331.976 58.233 328.399 55.3819 326.863C51.6898 324.875 46.5776 322.035 44.8735 320.899C43.1695 319.763 40.3294 317.491 39.4774 315.219C38.6253 312.947 38.3413 309.823 38.0573 304.995C37.7733 300.167 36.3532 295.622 31.5251 290.794C35.7852 293.634 38.6253 295.906 39.4774 302.155C40.3294 308.403 41.7494 313.515 42.8855 315.219C44.5895 317.775 51.4058 320.899 55.9499 322.887Z" fill="#7DC245"/>
<path d="M25.8449 302.439C31.8091 306.699 34.6492 312.947 44.3055 320.331L45.4416 317.775C42.6015 316.071 38.6253 313.231 35.5012 309.823C33.1582 307.267 30.9571 304.995 25.8449 302.439Z" fill="#7DC245"/>
<path d="M422.937 373.284C420.935 374.174 414.928 373.952 413.593 374.842V381.294L460.537 381.961C459.202 379.069 456.177 373.284 454.753 373.284C452.973 373.284 450.775 373.854 448.746 372.839C446.521 371.727 443.441 363.495 442.071 357.71C440.069 349.256 438.883 333.827 440.069 326.118C441.404 317.441 442.738 302.534 442.738 296.527C442.738 289.853 441.404 282.288 442.071 276.058C442.806 269.201 443.628 262.042 447.411 251.808C444.518 255.367 438.956 268.716 438.511 278.728C438.066 274.724 434.062 265.157 428.944 261.374C431.392 264.489 435.581 272.762 436.509 282.733C437.399 292.3 436.509 300.532 435.619 307.429C434.791 313.843 431.169 325.228 429.612 335.239C428.054 345.251 428.314 365.052 427.609 369.28C427.164 371.949 424.94 372.394 422.937 373.284Z" fill="#7DC245"/>
<path d="M448.968 318.776C446.521 319.591 443.183 319.888 441.626 320.333L442.738 317.441C444.741 317.886 448.301 317.218 451.638 316.106C455.643 314.771 460.092 312.324 466.544 308.541C461.872 312.768 453.507 317.263 448.968 318.776Z" fill="#7DC245"/>
<path d="M443.628 319.443C440.069 327.675 439.624 334.794 440.069 344.584L431.614 344.139C431.837 340.134 433.172 329.9 434.729 325.228C436.286 320.555 440.312 313.166 443.628 308.319C446.521 304.092 449.494 297.91 452.305 292.522C454.975 287.405 456.945 282.813 458.09 278.951C459.87 272.944 460.537 264.489 459.647 256.925C462.317 265.602 462.317 274.946 460.982 280.286C459.647 285.625 455.198 296.305 453.418 300.087C451.638 303.869 447.188 311.211 443.628 319.443Z" fill="#7DC245"/>
<path d="M470.549 282.955C462.54 294.525 443.183 297.862 429.834 290.298C421.602 295.192 409.811 291.41 407.586 282.288C379.775 290.298 371.766 250.695 399.131 247.58C400.021 239.793 407.586 234.899 416.485 237.124C415.818 230.672 421.825 227.334 426.497 228.892C426.497 207.978 456.31 207.088 460.982 222.885C470.549 222.885 474.109 230.227 472.996 237.124C477.891 237.791 481.451 240.683 483.231 244.688C484.343 244.021 485.233 244.466 485.455 245.356C491.463 244.911 497.247 249.805 495.69 258.037C506.592 272.721 486.568 293.635 470.549 282.955Z" fill="#7DC245"/>
<path d="M416.389 317.901C413.271 322.402 405.736 323.7 400.539 320.757C397.334 322.662 392.744 321.19 391.878 317.642C381.051 320.757 377.933 305.351 388.586 304.139C388.933 301.11 391.878 299.206 395.342 300.071C395.082 297.561 397.421 296.263 399.24 296.869C399.24 288.733 410.846 288.387 412.665 294.532C416.389 294.532 417.775 297.388 417.342 300.071C419.247 300.331 420.633 301.456 421.326 303.014C421.759 302.754 422.106 302.928 422.192 303.274C424.531 303.101 426.783 305.005 426.176 308.207C430.42 313.92 422.625 322.056 416.389 317.901Z" fill="#7DC245"/>
<path d="M474.786 312.705C472.708 315.705 467.684 316.571 464.219 314.609C462.083 315.878 459.023 314.897 458.445 312.532C451.227 314.609 449.149 304.338 456.251 303.53C456.482 301.51 458.445 300.241 460.755 300.818C460.582 299.145 462.141 298.279 463.353 298.683C463.353 293.259 471.091 293.028 472.303 297.125C474.786 297.125 475.71 299.029 475.421 300.818C476.692 300.991 477.616 301.741 478.078 302.78C478.366 302.607 478.597 302.722 478.655 302.953C480.214 302.838 481.715 304.107 481.311 306.242C484.141 310.05 478.944 315.474 474.786 312.705Z" fill="#7DC245"/>
<path d="M425.83 335.684C428.86 337.01 432.504 340.802 434.729 344.806L431.169 346.141C429.612 342.804 427.618 340.002 425.385 338.799C422.492 337.242 418.488 335.017 417.153 334.127C415.818 333.237 413.593 331.457 412.925 329.677C412.258 327.897 412.035 325.45 411.813 321.668C411.59 317.886 410.478 314.326 406.696 310.544C410.033 312.768 412.258 314.548 412.925 319.443C413.593 324.338 414.705 328.342 415.595 329.677C416.93 331.68 422.27 334.127 425.83 335.684Z" fill="#7DC245"/>
<path d="M402.246 319.665C406.918 323.003 409.143 327.897 416.708 333.682L417.598 331.68C415.373 330.345 412.258 328.12 409.811 325.45C407.975 323.448 406.251 321.668 402.246 319.665Z" fill="#7DC245"/>
</svg>
